<?xml version="1.0" encoding="utf-8"?>
<!-- Generator: Adobe Illustrator 23.0.2, SVG Export Plug-In . SVG Version: 6.00 Build 0)  -->
<svg version="1.1" id="Layer_1" xmlns="http://www.w3.org/2000/svg" xmlns:xlink="http://www.w3.org/1999/xlink" x="0px" y="0px"
	 viewBox="0 0 1264.1 459.9" style="enable-background:new 0 0 1264.1 459.9;" xml:space="preserve">
<style type="text/css">
	.st0{fill:#FFFFFF;}
	.st1{fill-rule:evenodd;clip-rule:evenodd;fill:url(#XMLID_6_);}
	.st2{fill:none;}
	.st3{fill:#F8F8F8;}
	.st4{fill:#FCFCFC;}
	.st5{fill:#F9F9F9;}
	.st6{fill:#F7F7F7;}
	.st7{fill:#FEFEFE;}
	.st8{fill:#F4F4F4;}
</style>
<g id="US">
	<path d="M61.7,452.9c-2.3,0-4.6,0-7-0.1c-4.3-0.2-9.4-0.5-14.4-1.9c-4.7-1.3-8.9-3.4-12.8-6.4c-4-3.1-7.6-7.1-10.8-11.9
		c-3.2-4.8-5.8-10.2-7.9-16.3c-2-5.9-3.4-12.2-4.2-19.4C3.8,389,3.6,381,3.5,374.9c0-2.5-0.1-10.7-0.1-10.7V94.1
		c0,0,0.1-8.1,0.1-10.5c0.1-6.1,0.3-14.1,1.3-21.9c0.8-7.2,2.2-13.5,4.2-19.4c2-6.1,4.7-11.6,7.8-16.3c3.2-4.8,6.8-8.9,10.8-12
		c4-3,8.1-5.1,12.7-6.4c5.2-1.4,10.5-1.8,14.5-1.9l7-0.1h1140.8l7,0.1c4,0.1,9.2,0.5,14.3,1.9c4.6,1.2,8.8,3.3,12.9,6.4
		c4,3.1,7.6,7.1,10.7,11.9c3.2,4.8,5.8,10.3,7.9,16.4c2,6,3.3,12.3,4.1,19.3c0.9,7.4,1.2,15,1.3,22.1c0,3.3,0,6.9,0,10.4
		c0.1,4.4,0.1,8.6,0.1,12.8v244.8c0,4.2,0,8.4-0.1,12.6c0,3.8,0,7.3,0,10.9c-0.2,6.9-0.4,14.5-1.3,21.7c-0.8,7.2-2.2,13.5-4.2,19.5
		c-2.1,6.1-4.7,11.6-7.8,16.2c-3.2,4.9-6.8,8.9-10.8,12c-4,3.1-8.1,5.1-12.9,6.4c-4.9,1.4-10.1,1.7-14.4,1.9
		c-2.3,0.1-4.6,0.1-6.9,0.1l-8.4,0L61.7,452.9z"/>
	<g>
		<path class="st0" d="M519.3,239.4h-35.6l-8.6,25.3H460l33.7-93.7h15.7l33.7,93.7h-15.3L519.3,239.4z M487.4,227.7h28.2l-13.9-41.1
			h-0.4L487.4,227.7z"/>
		<path class="st0" d="M616,230.6c0,21.2-11.3,34.9-28.4,34.9c-9.7,0-17.4-4.4-21.4-12h-0.3v33.8h-14v-90.9h13.5v11.4h0.3
			c3.9-7.3,12.2-12.1,21.7-12.1C604.6,195.7,616,209.4,616,230.6z M601.6,230.6c0-13.8-7.1-22.9-18-22.9c-10.7,0-17.9,9.3-17.9,22.9
			c0,13.8,7.2,23,17.9,23C594.5,253.5,601.6,244.5,601.6,230.6z"/>
		<path class="st0" d="M691,230.6c0,21.2-11.3,34.9-28.4,34.9c-9.7,0-17.4-4.4-21.4-12h-0.3v33.8h-14v-90.9h13.5v11.4h0.3
			c3.9-7.3,12.2-12.1,21.7-12.1C679.6,195.7,691,209.4,691,230.6z M676.6,230.6c0-13.8-7.1-22.9-18-22.9c-10.7,0-17.9,9.3-17.9,22.9
			c0,13.8,7.2,23,17.9,23C669.5,253.5,676.6,244.5,676.6,230.6z"/>
		<path class="st0" d="M702.3,171h14v93.7h-14V171z"/>
		<path class="st0" d="M789.1,244.7c-1.9,12.4-13.9,20.9-29.3,20.9c-19.8,0-32.1-13.3-32.1-34.7c0-21.4,12.4-35.3,31.5-35.3
			c18.8,0,30.7,13,30.7,33.7v4.8h-48.1v0.8c0,11.7,7.3,19.4,18.3,19.4c7.8,0,13.9-3.7,15.7-9.6L789.1,244.7L789.1,244.7z
			 M741.8,224.3h34.1c-0.3-10.5-7-17.3-16.7-17.3C749.5,206.9,742.5,213.9,741.8,224.3z"/>
		<path class="st0" d="M500.3,286.3c18.1,0,30.8,12.5,30.8,30.8c0,18.3-12.9,30.9-31.2,30.9h-20.1v32h-14.5v-93.7H500.3z
			 M479.8,335.8h16.6c12.6,0,19.8-6.8,19.8-18.6c0-11.8-7.2-18.6-19.7-18.6h-16.7C479.8,298.6,479.8,335.8,479.8,335.8z"/>
		<path class="st0" d="M536.2,345.9c0-21.5,12.6-35,32.3-35c19.7,0,32.3,13.5,32.3,35c0,21.6-12.5,35-32.3,35
			C548.7,380.9,536.2,367.4,536.2,345.9z M586.6,345.9c0-14.7-6.7-23.5-18.1-23.5c-11.3,0-18.1,8.8-18.1,23.5
			c0,14.8,6.7,23.4,18.1,23.4C579.8,369.3,586.6,360.7,586.6,345.9z"/>
		<path class="st0" d="M610.6,345.9c0-21.1,11.6-34.9,28.5-34.9c9.8,0,17.5,4.5,21.4,12.1h0.3v-36.8h14V380h-13.6v-11.6h-0.3
			c-4,7.8-11.8,12.3-21.7,12.3C622.2,380.8,610.6,367,610.6,345.9z M624.9,345.9c0,14,7.1,23,18,23c10.7,0,17.9-9.1,17.9-23
			c0-13.8-7.2-22.9-17.9-22.9C632.1,322.9,624.9,332,624.9,345.9z"/>
		<path class="st0" d="M734.3,335.2c-1.2-7.2-6.9-12.6-16.1-12.6c-10.7,0-17.9,9-17.9,23.3c0,14.6,7.2,23.3,18,23.3
			c8.7,0,14.4-4.3,15.9-12.3h13.5c-1.6,14.4-13,24-29.5,24c-19.4,0-32.1-13.3-32.1-35c0-21.2,12.7-35,32-35
			c17.5,0,28.4,11,29.5,24.4L734.3,335.2L734.3,335.2z"/>
		<path class="st0" d="M756.3,360.6c0-11.9,9.1-19.2,25.3-20.1l18.6-1v-5.2c0-7.6-5-11.9-13.5-11.9c-7.8,0-13.2,3.7-14.3,9.6h-13.1
			c0.4-12.3,11.8-21.1,27.8-21.1c16.3,0,27,8.9,27,22.3V380h-13.4v-11.2h-0.3c-4,7.6-12.6,12.4-21.5,12.4
			C765.7,381.2,756.3,372.9,756.3,360.6z M800.3,354.5v-5.3l-16.8,1c-8.4,0.5-13.1,4.2-13.1,10c0,6,4.9,9.9,12.4,9.9
			C792.6,370.1,800.3,363.4,800.3,354.5z"/>
		<path class="st0" d="M853.2,310.9c15.1,0,25.9,8.4,26.2,20.5h-13.1c-0.6-6-5.7-9.7-13.5-9.7c-7.6,0-12.6,3.5-12.6,8.8
			c0,4.1,3.4,6.8,10.4,8.6l11.5,2.7c13.7,3.3,18.9,8.4,18.9,18.4c0,12.3-11.7,20.8-28.3,20.8c-16.1,0-26.9-8.3-27.9-20.7h13.8
			c1,6.6,6.2,10.1,14.7,10.1c8.4,0,13.6-3.4,13.6-8.9c0-4.2-2.6-6.5-9.7-8.3l-12.2-3c-12.3-3-18.5-9.3-18.5-18.8
			C826.6,319.2,837.4,310.9,853.2,310.9z"/>
		<path class="st0" d="M911.4,295.5v16.2h13v11.1h-13v37.7c0,5.9,2.6,8.6,8.3,8.6c1.4,0,3.7-0.2,4.6-0.3v11
			c-1.6,0.4-4.7,0.6-7.8,0.6c-13.8,0-19.2-5.2-19.2-18.4v-39.2h-9.9v-11.1h9.9v-16.2H911.4z"/>
		<path class="st0" d="M961.9,310.9c15.1,0,25.9,8.4,26.2,20.5H975c-0.6-6-5.7-9.7-13.5-9.7c-7.6,0-12.6,3.5-12.6,8.8
			c0,4.1,3.4,6.8,10.4,8.6l11.5,2.7c13.7,3.3,18.9,8.4,18.9,18.4c0,12.3-11.7,20.8-28.3,20.8c-16.1,0-26.9-8.3-27.9-20.7h13.8
			c1,6.6,6.2,10.1,14.7,10.1c8.4,0,13.6-3.4,13.6-8.9c0-4.2-2.6-6.5-9.7-8.3l-12.2-3c-12.3-3-18.5-9.3-18.5-18.8
			C935.3,319.2,946.1,310.9,961.9,310.9z"/>
	</g>
	<g id="XMLID_1_">
		
			<linearGradient id="XMLID_6_" gradientUnits="userSpaceOnUse" x1="195.0021" y1="361.7588" x2="195.0021" y2="-59.9093" gradientTransform="matrix(0.8068 0 0 -0.8068 74.5984 352.9417)">
			<stop  offset="0" style="stop-color:#F452FF"/>
			<stop  offset="1" style="stop-color:#832BC1"/>
		</linearGradient>
		<path id="XMLID_4_" class="st1" d="M394.7,355.9c-3.3,8.4-10.9,20.2-21.7,28.6c-6.2,4.8-13.7,9.4-23.9,12.4
			c-10.9,3.2-24.3,4.3-41,4.3H155.6c-16.7,0-30.1-1.1-41-4.3c-10.2-3-17.6-7.6-23.9-12.4c-10.8-8.3-18.4-20.2-21.7-28.6
			c-6.6-16.9-6.7-36.1-6.7-48.2l0,0V154.6l0,0c0-12.1,0.1-31.3,6.7-48.2C72.4,98,80,86.2,90.8,77.9c6.2-4.8,13.7-9.4,23.9-12.4
			c10.9-3.2,24.3-4.3,41-4.3l0,0h152.6l0,0c16.7,0,30.1,1.1,41,4.3c10.2,3,17.6,7.6,23.9,12.4c10.8,8.3,18.4,20.2,21.7,28.6
			c6.6,16.9,6.7,36.1,6.7,48.2v153.1C401.4,319.8,401.4,339,394.7,355.9z"/>
		<path id="XMLID_3_" class="st2" d="M415.3,357.6c-3.4,8.6-11.2,20.8-22.3,29.4c-6.4,5-14.1,9.7-24.6,12.8
			c-11.2,3.3-25,4.5-42.2,4.5h-157c-17.2,0-31-1.1-42.2-4.5c-10.5-3.1-18.2-7.9-24.6-12.8c-11.1-8.6-18.9-20.7-22.3-29.4
			c-6.8-17.4-6.9-37.2-6.9-49.6l0,0V150.4l0,0c0-12.4,0.1-32.2,6.9-49.6c3.4-8.6,11.2-20.8,22.3-29.4c6.4-5,14.1-9.7,24.6-12.8
			c11.2-3.3,25-4.5,42.2-4.5l0,0h157l0,0c17.2,0,31,1.1,42.2,4.5c10.5,3.1,18.2,7.9,24.6,12.8c11.1,8.6,18.9,20.7,22.3,29.4
			c6.8,17.4,6.9,37.2,6.9,49.6V308C422.2,320.4,422.1,340.2,415.3,357.6z"/>
		<g id="XMLID_2_">
			<g>
				<path class="st0" d="M259.2,256.3c-5.2-5.5-14.4-9.1-25.3-9.1c-10.9,0-20.1,3.6-25.3,9.1c-2.7,2.9-4.2,5.9-4.6,10.1
					c-0.9,8.2-0.4,15.2,0.6,26.5c0.9,10.7,2.6,25,4.9,39.6c1.6,10.4,2.9,16,4.1,20c1.9,6.5,9.1,12.2,20.4,12.2
					c11.2,0,18.4-5.7,20.4-12.2c1.2-4,2.5-9.6,4.1-20c2.3-14.6,4-28.9,4.9-39.6c1-11.3,1.5-18.3,0.6-26.5
					C263.4,262.1,261.9,259.2,259.2,256.3z M205.4,206.9c0,15.8,12.8,28.7,28.6,28.7c15.8,0,28.6-12.8,28.6-28.7
					c0-15.8-12.8-28.7-28.6-28.7C218.2,178.3,205.4,191.1,205.4,206.9z M233.6,93.8c-66.8,0.2-121.5,54.6-122.3,121.6
					c-0.7,54.3,33.9,100.7,82.1,117.7c1.2,0.4,2.4-0.6,2.2-1.8c-0.6-4.2-1.2-8.4-1.8-12.6c-0.2-1.5-1.1-2.7-2.5-3.3
					c-38.1-16.7-64.7-55.1-64.3-99.5c0.6-58.3,48-105.8,106.1-106.3C292.5,109.1,341,157.5,341,217c0,44-26.5,81.9-64.3,98.4
					c-1.4,0.6-2.3,1.9-2.5,3.3c-0.5,4.2-1.1,8.4-1.8,12.6c-0.2,1.2,1,2.2,2.2,1.8c47.8-16.9,82.1-62.6,82.1-116.2
					C356.7,148.9,301.4,93.6,233.6,93.8z M231.4,150.3c37.9-1.5,69.1,29,69.1,66.7c0,19.2-8.1,36.5-21,48.6c-1.1,1-1.7,2.5-1.6,4
					c0.3,4.6,0.2,9-0.1,14.1c-0.1,1.3,1.4,2.2,2.5,1.4c21.7-14.9,35.9-39.9,35.9-68.1c0-46.6-38.7-84.2-85.5-82.4
					c-43.5,1.7-78.4,37.7-78.9,81.3c-0.4,28.7,14,54.2,35.9,69.2c1.1,0.8,2.6-0.1,2.5-1.4c-0.3-5-0.4-9.5-0.1-14.1
					c0.1-1.5-0.5-3-1.6-4c-13.3-12.6-21.5-30.6-21-50.4C168.4,180.2,196.5,151.7,231.4,150.3z"/>
			</g>
		</g>
		<line class="st2" x1="5.4" y1="222.3" x2="67.2" y2="222.3"/>
	</g>
</g>
<path class="st3" d="M680.7,105.2h-34.4c0.8,5.6,3.7,9,9,10.2c6.2,1.4,11.2-0.4,14.3-6.7l10.4,3c-3.1,11.5-14.8,17.8-27.3,15
	c-13.3-3.1-21.7-16.2-19-29.6c2.7-13.6,14.5-21.9,28.3-19.7C675.1,79.4,682.4,90,680.7,105.2z M647.3,96.2H668
	c-1.5-6.3-4.7-8.6-11.2-8.3C651.3,88.2,648.1,90.8,647.3,96.2z"/>
<path class="st3" d="M794.9,77.2c14.7,0.1,25.4,10.6,25.3,25s-11,25.1-26,25c-14.7-0.2-25.2-10.8-25.1-25.3
	C769.3,87.3,780.1,77.1,794.9,77.2z M794.8,89.1c-7.2,0-12.6,5.7-12.5,13.2s5.2,12.8,12.2,13c7.3,0.1,12.7-5.3,12.7-13
	S802,89.1,794.8,89.1z"/>
<path class="st4" d="M705.3,126h-12.8V78.4h12.2c0.2,1.4,0.4,2.6,0.6,4c0.5-0.1,1.1-0.1,1.4-0.4c6.1-5.6,13.1-6.4,20.4-3.1
	c7,3.2,9.3,9.6,9.3,16.8c0,10,0,19.9,0,30.2h-13c0-8.9,0-17.8,0-26.7c0-4.2-1.1-7.9-5.6-9.6c-6.4-2.3-12.2,1.9-12.3,9.4
	C705.1,107.8,705.3,116.6,705.3,126z"/>
<path class="st4" d="M843.3,126h-12.8V78.4h12.1c0.2,1.3,0.4,2.5,0.6,3.9c0.4-0.1,1,0,1.3-0.3c6.1-5.6,13.1-6.4,20.4-3.2
	s9.4,9.8,9.4,17.3c0,9.8,0,19.6,0,29.7h-13c0-9,0.1-18,0-27.1c-0.1-7-4.6-10.8-10.9-9.5c-4.3,0.9-7,4.6-7,10.2
	C843.2,108.2,843.3,117,843.3,126z"/>
<path class="st5" d="M519.7,126h-44.2V57.4h13.3v55.7h30.9V126z"/>
<path class="st6" d="M552.1,112.5l10.8-2.4c1.4,4.8,4.6,7.6,9.5,6.9c2-0.3,3.8-2.5,5.7-3.8c-1.5-1.7-2.8-3.8-4.7-4.8
	c-2.3-1.2-5.1-1.2-7.7-1.9c-8.6-2.4-12.5-6.9-12.5-13.9c0.1-7,5.2-12.9,13.1-14.9c11.1-2.8,21.3,2.7,23.9,13.3l-10.4,2.4
	c-3.6-5.8-7.3-7.6-11.4-5.3c-1.5,0.9-2.5,2.3-2.8,4c-0.1,1,1.7,2.8,3,3.3c3.3,1.1,6.8,1.5,10.1,2.5c7.7,2.2,12.3,7.5,12.2,13.9
	c-0.1,7-5.3,13.3-13.1,15C563.2,129.7,552.8,122,552.1,112.5z"/>
<path class="st5" d="M595.5,89.9v-10c3.4-2.1,7.2-3.3,8.8-5.9c1.6-2.6,1.1-6.7,1.5-10.4h11.5v14.6h9.7v11.7h-9.7
	c0,7.3-0.1,14,0,20.8c0.1,3.1,1.7,4.9,5,4.9h4.1c0.4,0.4,0.6,0.6,0.6,0.7c-0.8,3.5,2.7,8.4-2.2,10.5c-6,2.6-15-0.2-17.9-5.2
	c-1.6-2.9-2.4-6.1-2.6-9.4c-0.4-7.3-0.1-14.6-0.1-22.2H595.5z"/>
<path class="st7" d="M529.5,78.2H542v47.7h-12.4V78.2z"/>
<path class="st8" d="M535.5,70.4c-4.5,0-8.2-3.6-8.2-8.1c0-4.5,3.6-8.2,8.1-8.2c0.2,0,0.5,0,0.7,0c4.3,0.3,7.7,3.9,7.8,8.2
	C543.7,66.9,540,70.4,535.5,70.4z"/>
</svg>
