<?xml version="1.0" encoding="utf-8"?>
<!-- Generator: Adobe Illustrator 23.0.2, SVG Export Plug-In . SVG Version: 6.00 Build 0)  -->
<svg version="1.1" id="Layer_1" xmlns="http://www.w3.org/2000/svg" xmlns:xlink="http://www.w3.org/1999/xlink" x="0px" y="0px"
	 viewBox="0 0 1269.6 459.2" style="enable-background:new 0 0 1269.6 459.2;" xml:space="preserve">
<style type="text/css">
	.st0{fill:#BBBBBB;}
	.st1{fill:#CACACA;}
	.st2{fill:#000100;}
	.st3{fill:#1ED55F;}
	.st4{fill:#1ED45E;}
	.st5{fill:#1ED45F;}
	.st6{fill:#1DD35E;}
	.st7{fill:#1DD15D;}
	.st8{fill:#F8F8F8;}
	.st9{fill:#FCFCFC;}
	.st10{fill:#F9F9F9;}
	.st11{fill:#F7F7F7;}
	.st12{fill:#FEFEFE;}
	.st13{fill:#F4F4F4;}
	.st14{fill:#000201;}
	.st15{fill:#000301;}
	.st16{fill:#040404;}
	.st17{fill:#020202;}
</style>
<title>spotify</title>
<path class="st0" d="M84,470.3L84,470.3z"/>
<path class="st0" d="M0,79.3L0,79.3z"/>
<path class="st1" d="M1170-4.7L1170-4.7z"/>
<path class="st0" d="M0,379.3L0,379.3z"/>
<path class="st2" d="M635.5,6c182.5,0,365,0,547.4,0.1c10.6,0,21.3,1.1,31.7,3.4c26,5.8,45.8,28.9,48.4,55.4
	c1,10.1,1.6,20.3,1.6,30.4c0.1,92.2,0.1,184.3-0.1,276.5c0.1,10.2-1,20.3-3.2,30.2c-6.5,28.6-28.8,47.6-58.1,50.2
	c-7.6,0.7-15.3,1.1-22.9,1.1c-360,0.1-719.9,0.1-1079.9,0c-12.3,0-24.7,0.4-36.8-0.9c-29.4-3.3-53.6-28-56.4-57.6
	c-1.3-13.9-1.7-27.9-1.7-41.9c-0.2-87.6-0.2-175.3,0-263c0-14.2,0.6-28.4,6-41.8C21.2,23.9,39.8,11,65.1,7.4C73.4,6.4,81.7,5.9,90,6
	C271.8,6,453.6,6,635.5,6z M243.8,406.5c97.5,0.1,177-78.9,177-176c0-100.2-80.4-174.6-171.5-177.4c-96.7-3-181.9,74.4-182.2,176.2
	c-0.4,97.5,78.4,176.8,175.8,177.2C243.3,406.5,243.6,406.5,243.8,406.5L243.8,406.5z M1054.9,230.5c7.2,0,13.7,0.2,20.2-0.1
	c3.4-0.1,4.9,1.1,6.2,4.2c11.3,27.4,22.7,54.7,34.3,82c1.8,4.1,1.3,7.1-1.3,10.5c-2.7,3.6-6,6-10.5,5.5c-4.4-0.5-8.8-1.5-13-3
	c-2.9-1-4.5-1.4-5.8,1.9c-2.2,5.4-4.6,10.7-7.2,15.9c-1.4,2.8-0.5,4.1,2,5.4c26.4,14.4,51.2,6.1,63.5-21.2c0.1-0.3,0.3-0.6,0.4-0.9
	c15.8-40.6,31.6-81.2,47.4-121.9c1.5-3.9,0-4.7-3.5-4.6c-7.5,0.1-15,0.2-22.5,0c-3.3-0.1-4.6,1.3-5.6,4.3
	c-4.1,12.1-8.4,24.2-12.6,36.3c-4.7,13.4-9.4,26.8-14.5,41.1c-1.1-2.6-1.8-4.3-2.4-6c-9-23.6-18.2-47.2-27.1-70.9
	c-1.3-3.5-3-4.9-6.8-4.8c-9,0.3-18,0.1-27,0.1h-14.5c0-2.5-0.2-4.3,0-6c1.1-10.1,4.8-13.5,15-13c3.6,0.2,7.3,0.9,10.8,1.9
	c3.3,0.9,5.1,0.6,4.9-3.4c-0.2-6-0.1-12,0-18c0.1-2.6-0.8-4.2-3.5-4.4c-8.4-0.8-16.9-2.9-25.2-2.2c-19,1.5-29.7,12.8-31.5,31.4
	c-0.4,4.4-0.6,8.8-0.9,13.5c-3.7,0-6.9,0-10,0c-2.8,0-4.3,0.9-4.2,4.1c0.2,6.3,0.1,12.7,0,19c-0.1,2.9,1.2,3.8,3.9,3.7
	c3.4-0.1,6.8,0,10.7,0v6.2c0,27,0.1,54-0.1,81c0,4.3,1.1,6,5.7,5.7c6.2-0.4,12.3-0.4,18.5,0c4.9,0.3,6.6-1,6.6-6.3
	c-0.3-22.1-0.1-44.3-0.1-66.5L1054.9,230.5z M648.7,309.7c1.5,1.1,2,1.5,2.5,2c20.4,20.7,54.1,17,72.6-1.4c19-18.9,23.5-55.2,10-80
	c-17.1-31.3-60.4-39-83.2-13c-0.6,0.4-1.2,0.7-1.8,1c0-3.5-0.1-6.5,0-9.5c0.2-3.4-1-4.8-4.5-4.7c-7.2,0.2-14.3,0.2-21.5,0
	c-3.5-0.1-4.6,1.3-4.6,4.7c0.1,48.3,0.1,96.7,0,145c0,3.4,1.1,5,4.6,4.7c1.3-0.1,2.7,0,4,0c7.1-0.3,14.2-0.6,21.2-0.9
	c0.3-7.1,0.6-14.2,0.7-21.3C648.8,327.6,648.7,319.1,648.7,309.7L648.7,309.7z M546,164.2c-9.8-0.4-19.6,1.7-28.4,6
	c-17.4,8.8-26.2,22.8-25.9,42.6c0.3,18.8,10.2,30.8,27,37.6c8,3.2,16.4,5.4,24.6,8c8.4,2.7,16.9,5,25.1,8.3
	c5.9,2.3,8.9,7.2,8.7,13.8c-0.2,6.5-3.2,11.2-9,13.8c-3.8,1.7-7.8,2.8-11.9,3.2c-18.9,1.7-34.9-5.2-49-17.3
	c-2.8-2.4-4.6-2.4-6.9,0.5c-3.9,5-7.9,9.9-12.2,14.5c-2.9,3.1-2.5,5,0.7,7.6c22.7,18.5,48.5,25.9,77.4,21.4
	c26.8-4.2,42.6-23.3,41.7-49.4c-0.7-18.7-11.6-30-28-36.5c-10.2-4-21-6.5-31.4-9.9c-6.3-2.1-12.8-4-18.6-7.1
	c-10.2-5.6-10.3-19.4-0.2-25.3c3.6-2,7.6-3.3,11.8-3.7c15.4-1.6,28.8,3.9,41,12.8c4,2.9,6.1,2.3,8.6-1.7c3.1-5,6.4-9.7,10.1-14.3
	c2.8-3.4,1.8-5.2-1.4-7.6C584.2,170,566.6,164.3,546,164.2z M749.9,264.1c0,34.6,27.8,61.9,63,61.9c35.7,0,63.9-27.5,64-62.4
	s-27.9-62.1-63.5-62.2S749.9,228.9,749.9,264.1z M893.4,230.5c0,6.2,0,11.9,0,17.5c0.2,16.3-0.1,32.7,0.7,48.9
	c0.5,10.9,5.4,20.2,16,24.7c14,5.9,28,5,41.5-1.7c1.5-0.9,2.5-2.4,2.8-4.1c0.3-6.1,0.2-12.3,0.1-18.5c0-3-1.3-3.7-4.2-2.8
	c-4.1,1.3-8.3,2.7-12.5,3c-10.4,0.7-14-2.9-14-13.3c0-16.3,0-32.7,0-49c0-1.4,0.2-2.9,0.3-4.8c8.9,0,17.6-0.1,26.2,0.1
	c3.5,0.1,4.8-1.1,4.6-4.6c-0.3-5.5-0.3-11,0-16.5c0.3-4.6-1.5-5.6-5.8-5.5c-8.3,0.3-16.6,0.1-25.4,0.1c0-9.2-0.2-17.8,0.1-26.4
	c0.1-4.1-1-5.7-5.3-5.5c-6.5,0.4-13,0.4-19.5,0c-4.8-0.3-6,1.5-5.9,6c0.3,8.4,0.1,16.9,0.1,25.9c-4,0-7.5-0.3-10.9,0.2
	c-1.3,0.2-3.3,2.1-3.4,3.4c-0.3,6.3,0,12.6-0.2,19c-0.1,3.2,1.3,4.1,4.2,3.9C886.3,230.3,889.6,230.4,893.4,230.5L893.4,230.5z
	 M967.1,263.3c0,18.3,0.1,36.6-0.1,54.9c0,3.9,1.1,5.3,5.1,5.2c7-0.3,14-0.2,21,0c3.5,0.1,4.6-1.3,4.6-4.7
	c-0.1-36.6-0.1-73.2,0-109.9c0-3.7-1.3-5.1-4.9-5c-6.8,0.1-13.7,0.2-20.5,0c-4.2-0.2-5.3,1.5-5.3,5.6
	C967.2,227.3,967.1,245.3,967.1,263.3z M698.5,99.3c1.7-15.2-5.6-25.8-18.7-27.8c-13.9-2.1-25.6,6.1-28.3,19.7
	c-2.7,13.4,5.7,26.5,19,29.6c12.5,2.8,24.2-3.5,27.3-15l-10.4-3c-3.1,6.3-8.1,8.1-14.3,6.7c-5.3-1.2-8.2-4.6-9-10.2L698.5,99.3
	L698.5,99.3z M812.7,71.3c-14.8-0.1-25.6,10.3-25.7,24.7c-0.1,14.4,10.4,25.2,25.1,25.3c15,0.2,25.9-10.4,26-25
	S827.4,71.3,812.7,71.3z M723,120.1c0-9.4-0.2-18.2,0-27c0.2-7.5,5.9-11.7,12.3-9.4c4.5,1.6,5.6,5.3,5.6,9.6c0,8.9,0,17.9,0,26.7h13
	c0-10.2,0-20.2,0-30.2c0-7.3-2.2-13.7-9.3-16.9c-7.2-3.3-14.3-2.5-20.4,3.1c-0.3,0.3-0.9,0.3-1.4,0.4c-0.2-1.4-0.4-2.7-0.6-4h-12.2
	v47.6L723,120.1z M861,120.1c0-9-0.1-17.8,0-26.6c0.1-5.6,2.8-9.3,7-10.2c6.3-1.3,10.8,2.5,10.9,9.5c0.1,9.1,0,18.2,0,27.1h13
	c0-10.1,0-19.9,0-29.7c0-7.5-2.1-14.1-9.4-17.3c-7.3-3.3-14.3-2.4-20.4,3.2c-0.3,0.3-0.8,0.2-1.3,0.3c-0.2-1.4-0.4-2.6-0.7-3.9h-12
	v47.6H861z M537.4,120.1v-12.9h-30.9V51.5h-13.3v68.6L537.4,120.1z M569.9,106.5c0.7,9.6,11,17.2,25.7,14.2c7.8-1.6,13-7.9,13.1-15
	c0.1-6.4-4.5-11.7-12.2-13.9c-3.3-1-6.9-1.4-10.1-2.5c-1.3-0.4-3.1-2.2-3-3.3c0.3-1.7,1.4-3.1,2.8-4c4-2.3,7.7-0.4,11.4,5.3L608,85
	c-2.6-10.7-12.7-16.2-23.9-13.3c-7.8,2-13,7.9-13.1,14.9s3.9,11.5,12.5,13.9c2.5,0.7,5.4,0.7,7.7,1.9c1.9,1,3.2,3.2,4.7,4.8
	c-1.9,1.3-3.7,3.5-5.7,3.8c-4.8,0.6-8.1-2.1-9.5-6.9L569.9,106.5z M613.2,84h8.8c0,7.6-0.2,14.9,0.1,22.2c0.1,3.3,1,6.5,2.6,9.4
	c2.9,5.1,11.9,7.9,17.9,5.2c4.9-2.1,1.4-7,2.2-10.5c0-0.1-0.2-0.2-0.6-0.7h-4.1c-3.3,0-5-1.8-5-4.9c-0.1-6.8,0-13.6,0-20.8h9.6V72.2
	H635V57.6h-11.5c-0.4,3.8,0.1,7.8-1.5,10.4c-1.6,2.7-5.4,3.8-8.8,5.9V84z M982.2,189.3c10.5,0.2,19.1-8.2,19.3-18.7
	c0.2-10.5-8.2-19.1-18.7-19.3c-10.5-0.2-19.1,8.2-19.3,18.7c0,0.1,0,0.3,0,0.4C963.6,180.7,971.8,189,982.2,189.3z M547.3,72.3V120
	h12.4V72.3H547.3z M553.3,64.5c4.5,0,8.2-3.6,8.4-8.1c-0.1-4.3-3.5-7.9-7.8-8.2c-4.5-0.3-8.4,3.1-8.7,7.6c-0.3,4.5,3.1,8.4,7.6,8.7
	C553,64.5,553.1,64.5,553.3,64.5z"/>
<path class="st3" d="M243.9,406.5c-97.5,0.1-176.6-78.8-176.7-176.3c0-0.3,0-0.6,0-0.9C67.5,127.4,152.6,50,249.3,53
	c91.1,2.8,171.5,77.2,171.5,177.5C420.8,327.6,341.3,406.5,243.9,406.5z M210.1,146.3c-9.5,0.9-27.1,2-44.5,4.3
	c-10.8,1.4-21.6,4.2-32.1,7.2c-8.5,2.4-13.6,11.2-11.2,19.7c0,0.1,0.1,0.2,0.1,0.3c2.5,8.8,11.1,13.7,20.3,11.5
	c2.6-0.6,5.1-1.4,7.7-2.1c32.7-7.9,65.8-9.3,99.2-6.1c34.6,3.3,67.9,11,98.6,28.3c8.7,4.9,18.3,2.4,23-5.6c4.9-8.3,2.3-18-6.7-23
	c-7.4-4.2-15-8-22.8-11.4C302.3,152.8,260.8,147,210.1,146.3z M217,207.3c-25.9,0.2-49.1,2.9-71.7,9.7c-8.9,2.7-13.3,9.8-10.9,17.7
	c2.3,7.6,9.8,11.2,18.5,8.7c43.1-12,86.2-10.8,129.1,1.2c16,4.5,31.4,11.1,45.7,19.6c7.1,4.2,15.2,2,19.1-4.7
	c3.8-6.5,1.9-14.3-4.8-18.7c-2.5-1.6-5.1-3.1-7.8-4.5C297,216.2,256.8,207.9,217,207.3z M326.8,300.1c-1.4-1.7-3.2-5.8-6.4-7.6
	c-10.2-5.6-20.6-11-31.4-15.1c-33.3-12.6-67.8-14.6-102.8-10.4c-12.2,1.4-24.3,3.9-36.4,6.3c-5.8,1-9.6,6.6-8.6,12.4
	c0.1,0.3,0.1,0.6,0.2,0.8c1.5,6,7,9.2,13.5,8c6.7-1.3,13.4-2.7,20.1-3.8c31.7-5.1,63.5-5.9,94.5,3.7c13.7,4.2,26.7,10.9,39.8,17
	C317.6,315.3,326.7,311.1,326.8,300.1z"/>
<path class="st3" d="M1054.9,230.4v20.1c0,22.2-0.2,44.3,0.1,66.5c0.1,5.2-1.6,6.6-6.6,6.3c-6.2-0.4-12.3-0.4-18.5,0
	c-4.5,0.3-5.7-1.5-5.7-5.7c0.1-27,0.1-54,0.1-81v-6.2c-3.8,0-7.2-0.1-10.7,0c-2.7,0.1-3.9-0.9-3.9-3.7c0.1-6.3,0.2-12.7,0-19
	c-0.1-3.2,1.4-4.1,4.2-4.1c3.2,0,6.3,0,10,0c0.3-4.7,0.5-9.1,0.9-13.5c1.8-18.6,12.5-29.9,31.5-31.4c8.3-0.6,16.8,1.4,25.2,2.2
	c2.7,0.3,3.6,1.8,3.5,4.4c-0.1,6-0.2,12,0,18c0.1,4-1.6,4.3-4.9,3.4c-3.5-1-7.1-1.6-10.8-1.9c-10.1-0.5-13.9,2.9-15,13
	c-0.2,1.8,0,3.6,0,6h14.6c9,0,18,0.2,27-0.1c3.8-0.1,5.5,1.3,6.8,4.8c8.9,23.7,18,47.3,27.1,70.9c0.6,1.7,1.4,3.3,2.4,6
	c5-14.3,9.8-27.7,14.5-41.1c4.2-12.1,8.5-24.1,12.6-36.3c1-2.9,2.3-4.4,5.6-4.3c7.5,0.2,15,0.1,22.5,0c3.5,0,5,0.7,3.5,4.6
	c-15.8,40.6-31.6,81.2-47.4,121.9c-0.1,0.3-0.3,0.6-0.4,0.9c-12.2,27.3-37.1,35.6-63.5,21.2c-2.5-1.4-3.4-2.6-2-5.4
	c2.6-5.2,5-10.5,7.2-15.9c1.3-3.2,3-2.9,5.8-1.9c4.2,1.5,8.6,2.5,13,3c4.5,0.5,7.8-1.9,10.5-5.5c2.5-3.4,3-6.4,1.3-10.5
	c-11.6-27.2-23.1-54.6-34.3-82c-1.3-3.1-2.8-4.3-6.2-4.2C1068.6,230.7,1062.1,230.4,1054.9,230.4z"/>
<path class="st4" d="M648.7,309.7c0,9.5,0.1,17.9,0,26.4c-0.1,7.1-0.5,14.2-0.7,21.3c-7.1,0.3-14.1,0.6-21.2,0.9
	c-1.3,0.1-2.7-0.1-4,0c-3.5,0.4-4.6-1.2-4.6-4.7c0.1-48.3,0.1-96.7,0-145c0-3.4,1-4.8,4.6-4.7c7.2,0.2,14.3,0.2,21.5,0
	c3.6-0.1,4.8,1.4,4.5,4.7c-0.2,3,0,6,0,9.5c0.7-0.3,1.3-0.6,1.8-1c22.9-26,66.2-18.3,83.2,13c13.6,24.9,9,61.2-10,80
	c-18.6,18.4-52.3,22.1-72.6,1.4C650.7,311.2,650.2,310.8,648.7,309.7z M647.9,265.1c0.3,1.9,0.5,5,1.2,8.1c3,14,14.2,24.2,27.4,25.4
	c14.4,1.2,26.1-5.8,31.3-19c4.1-10.2,4.1-21.5,0-31.7c-7.6-19.1-30.3-25.7-46.3-13.4C651.8,241.8,648.2,252,647.9,265.1L647.9,265.1
	z"/>
<path class="st5" d="M546,164.2c20.6,0.1,38.2,5.9,53.9,17.4c3.2,2.3,4.1,4.1,1.4,7.6c-3.6,4.5-7,9.3-10.1,14.3
	c-2.5,4-4.6,4.6-8.6,1.7c-12.2-8.8-25.6-14.3-41-12.8c-4.1,0.4-8.1,1.6-11.7,3.7c-10.1,5.9-10,19.7,0.2,25.3
	c5.8,3.1,12.3,5.1,18.6,7.1c10.4,3.4,21.2,5.8,31.4,9.9c16.3,6.5,27.3,17.8,28,36.5c1,26.1-14.9,45.2-41.7,49.4
	c-28.9,4.6-54.7-2.9-77.4-21.4c-3.2-2.6-3.6-4.5-0.7-7.6c4.3-4.6,8.3-9.5,12.2-14.5c2.3-2.9,4.1-3,6.9-0.5c14.1,12,30.1,19,49,17.3
	c4.1-0.4,8.1-1.5,11.9-3.2c5.8-2.5,8.8-7.3,9-13.8c0.2-6.7-2.8-11.5-8.7-13.8c-8.2-3.2-16.7-5.6-25.1-8.3c-8.2-2.6-16.6-4.8-24.6-8
	c-16.8-6.8-26.7-18.7-27-37.6c-0.3-19.7,8.4-33.8,25.9-42.6C526.5,165.9,536.2,163.8,546,164.2z"/>
<path class="st5" d="M749.9,264.1c0-35.2,28-62.7,63.5-62.6s63.5,27.4,63.5,62.2s-28.3,62.3-64,62.4
	C777.7,326,749.8,298.7,749.9,264.1z M846.3,268.5c0.2-26-17.1-42.6-37.1-39.7c-14.4,2.1-24.5,11-27.9,24.9
	c-3.8,15.1,1.4,31.1,13.1,39.2c10.8,7.5,22.4,8.3,34,2.5C841,289,846,277.9,846.3,268.5L846.3,268.5z"/>
<path class="st6" d="M893.4,230.4c-3.8,0-7-0.1-10.3,0c-2.9,0.1-4.3-0.8-4.2-3.9c0.2-6.3-0.1-12.7,0.2-19c0.1-1.2,2.1-3.2,3.4-3.4
	c3.4-0.5,6.9-0.2,10.9-0.2c0-9,0.2-17.5-0.1-25.9c-0.2-4.5,1.1-6.3,5.9-6c6.5,0.4,13,0.4,19.5,0c4.3-0.2,5.4,1.4,5.3,5.5
	c-0.2,8.6-0.1,17.2-0.1,26.4c8.8,0,17.1,0.2,25.4-0.1c4.2-0.1,6.1,0.9,5.8,5.5c-0.3,5.5-0.3,11,0,16.5c0.2,3.5-1.1,4.7-4.6,4.6
	c-8.6-0.2-17.2-0.1-26.2-0.1c-0.1,1.9-0.3,3.3-0.3,4.8c0,16.3,0,32.7,0,49c0,10.4,3.6,14,14,13.3c4.2-0.3,8.4-1.7,12.5-3
	c2.9-0.9,4.2-0.2,4.2,2.8c0,6.2,0.2,12.3-0.1,18.5c-0.3,1.7-1.3,3.2-2.8,4.1c-13.6,6.6-27.6,7.6-41.5,1.7
	c-10.6-4.5-15.5-13.8-16-24.7c-0.8-16.3-0.6-32.6-0.7-48.9C893.3,242.3,893.4,236.7,893.4,230.4z"/>
<path class="st7" d="M967.1,263.3c0-18,0.1-35.9-0.1-53.9c0-4.1,1.1-5.7,5.3-5.6c6.8,0.3,13.7,0.2,20.5,0c3.6-0.1,4.9,1.3,4.9,5
	c-0.1,36.6-0.1,73.2,0,109.9c0,3.4-1.1,4.8-4.6,4.7c-7-0.2-14-0.3-21,0c-4,0.2-5.1-1.3-5.1-5.2C967.2,299.8,967.1,281.5,967.1,263.3
	z"/>
<path class="st8" d="M698.5,99.3h-34.3c0.8,5.6,3.7,9,9,10.2c6.2,1.4,11.2-0.4,14.3-6.7l10.4,3c-3.1,11.5-14.8,17.8-27.3,15
	c-13.3-3.1-21.7-16.2-19-29.6c2.7-13.6,14.5-21.9,28.3-19.7C692.8,73.5,700.2,84.1,698.5,99.3z M665,90.3h20.8
	c-1.5-6.3-4.7-8.6-11.2-8.3C669,82.3,665.8,84.9,665,90.3z"/>
<path class="st8" d="M812.7,71.3c14.7,0.1,25.4,10.6,25.3,25s-11,25.1-26,25c-14.6-0.2-25.2-10.8-25.1-25.3
	C787.1,81.4,797.9,71.2,812.7,71.3z M812.5,83.2c-7.2,0-12.6,5.7-12.5,13.2c0.1,7.5,5.2,12.9,12.2,13c7.3,0.1,12.7-5.3,12.7-13
	C825.1,88.7,819.7,83.2,812.5,83.2z"/>
<path class="st9" d="M723,120.1h-12.8V72.5h12.2c0.2,1.4,0.4,2.6,0.6,4c0.5-0.1,1.1-0.1,1.4-0.4c6.1-5.6,13.1-6.4,20.4-3.1
	c7,3.2,9.3,9.6,9.3,16.9c0,10,0,19.9,0,30.2h-13c0-8.9,0-17.8,0-26.7c0-4.2-1.1-7.9-5.6-9.6c-6.4-2.3-12.2,1.9-12.3,9.4
	C722.8,101.9,723,110.7,723,120.1z"/>
<path class="st9" d="M861,120.1h-12.8V72.5h12.1c0.2,1.3,0.4,2.5,0.7,3.9c0.4-0.1,1,0,1.3-0.3c6.1-5.6,13.1-6.4,20.4-3.2
	c7.2,3.2,9.4,9.8,9.4,17.3c0,9.8,0,19.6,0,29.7h-13c0-9,0.1-18,0-27.1c-0.1-7-4.6-10.9-10.9-9.5c-4.3,0.9-7,4.6-7,10.2
	C860.9,102.3,861,111.1,861,120.1z"/>
<path class="st10" d="M537.4,120.1h-44.2V51.5h13.3v55.7h30.9V120.1z"/>
<path class="st11" d="M569.9,106.5l10.8-2.4c1.4,4.8,4.6,7.6,9.5,6.9c2-0.3,3.8-2.5,5.7-3.8c-1.5-1.7-2.8-3.8-4.7-4.8
	c-2.3-1.2-5.1-1.2-7.7-1.9c-8.6-2.4-12.5-6.9-12.5-13.9c0.1-7,5.2-12.9,13.1-14.9c11.1-2.8,21.3,2.7,23.9,13.3l-10.4,2.4
	c-3.6-5.8-7.3-7.6-11.4-5.3c-1.5,0.9-2.5,2.3-2.8,4c-0.1,1,1.7,2.8,3,3.3c3.3,1.1,6.8,1.5,10.1,2.5c7.7,2.2,12.3,7.5,12.2,13.9
	c-0.1,7-5.3,13.4-13.1,15C580.9,123.8,570.6,116.1,569.9,106.5z"/>
<path class="st10" d="M613.2,84V74c3.4-2.1,7.2-3.3,8.8-5.9c1.6-2.6,1.1-6.7,1.5-10.4H635v14.6h9.7v11.7H635c0,7.3-0.1,14,0,20.8
	c0.1,3.1,1.7,4.9,5,4.9h4.1c0.4,0.4,0.6,0.6,0.6,0.7c-0.8,3.5,2.7,8.4-2.2,10.5c-6,2.6-15-0.2-17.9-5.2c-1.6-2.9-2.4-6.1-2.6-9.4
	c-0.4-7.3-0.1-14.6-0.1-22.2H613.2z"/>
<path class="st6" d="M982.2,189.3c-10.5-0.2-18.8-8.9-18.6-19.4c0.2-10.5,8.9-18.8,19.4-18.6c10.4,0.2,18.7,8.8,18.6,19.3
	C1001.3,181.1,992.7,189.4,982.2,189.3z"/>
<path class="st12" d="M547.3,72.3h12.4V120h-12.4V72.3z"/>
<path class="st13" d="M553.3,64.5c-4.5,0-8.2-3.6-8.2-8.1c0-4.5,3.6-8.2,8.1-8.2c0.2,0,0.5,0,0.7,0c4.3,0.3,7.7,3.9,7.8,8.2
	C561.5,61,557.8,64.5,553.3,64.5z"/>
<path class="st14" d="M210.1,146.3c50.6,0.8,92.1,6.6,131.6,23.2c7.8,3.4,15.4,7.2,22.8,11.4c9,5,11.6,14.7,6.7,23
	c-4.7,8-14.2,10.5-23,5.6c-30.6-17.3-63.9-25.1-98.6-28.3c-33.4-3.2-66.5-1.8-99.2,6.1c-2.6,0.6-5.1,1.4-7.7,2.1
	c-9.2,2.2-17.8-2.7-20.3-11.5c-2.5-8.5,2.3-17.4,10.8-20c0.1,0,0.2-0.1,0.4-0.1c10.6-3,21.3-5.8,32.1-7.2
	C183.1,148.3,200.7,147.1,210.1,146.3z"/>
<path class="st14" d="M217,207.3c39.8,0.6,80,8.9,117.3,29.1c2.6,1.4,5.3,2.9,7.8,4.5c6.7,4.4,8.6,12.2,4.8,18.7
	c-3.9,6.7-12,8.9-19.1,4.7c-14.3-8.5-29.7-15.1-45.7-19.6c-42.9-12-85.9-13.3-129.1-1.2c-8.7,2.4-16.2-1.1-18.5-8.7
	c-2.4-7.9,2-15,10.9-17.7C167.9,210.2,191.1,207.5,217,207.3z"/>
<path class="st15" d="M326.8,300.1c-0.1,11-9.1,15.3-17.6,11.3c-13.1-6.1-26.1-12.8-39.8-17c-31-9.6-62.7-8.8-94.5-3.7
	c-6.7,1.1-13.4,2.5-20.1,3.8c-6.5,1.2-11.9-2.1-13.5-8c-1.5-5.7,1.9-11.5,7.5-13c0.3-0.1,0.6-0.1,0.8-0.2
	c12.1-2.5,24.2-4.9,36.4-6.3c35-4.1,69.6-2.2,102.8,10.4c10.8,4.1,21.2,9.5,31.4,15.1C323.5,294.3,325.4,298.4,326.8,300.1z"/>
<path class="st14" d="M647.9,265.1c0.3-13,4-23.3,13.6-30.6c16.1-12.2,38.7-5.7,46.3,13.4c4.1,10.2,4.1,21.5,0,31.7
	c-5.2,13.2-16.9,20.2-31.3,19c-13.2-1.1-24.4-11.4-27.4-25.4C648.4,270.1,648.1,266.9,647.9,265.1z"/>
<path class="st14" d="M846.3,268.5c-0.2,9.4-5.2,20.6-17.8,26.9c-11.6,5.9-23.2,5-34-2.5c-11.7-8.1-16.9-24.1-13.1-39.2
	c3.5-13.9,13.5-22.9,27.9-24.9C829.2,225.9,846.5,242.4,846.3,268.5z"/>
<path class="st16" d="M665,90.3c0.9-5.4,4.1-8,9.6-8.3c6.5-0.3,9.7,2,11.2,8.3H665z"/>
<path class="st17" d="M812.5,83.2c7.2,0,12.6,5.6,12.5,13.2s-5.4,13.1-12.7,13c-7-0.1-12.1-5.5-12.2-13
	C799.9,88.9,805.2,83.2,812.5,83.2z"/>
</svg>
