<svg xmlns="http://www.w3.org/2000/svg" width="164.8566px" height="40px" xmlns:xlink="http://www.w3.org/1999/xlink" viewBox="0 0 377 110"><defs><style>.cls-1{fill:#fff;}.cls-2{font-size:26px;font-family:Gotham-Medium, Gotham;font-weight:500;letter-spacing:-0.03em;}.cls-3{letter-spacing:-0.05em;}.cls-4{letter-spacing:-0.03em;}.cls-5{fill:none;stroke:#000;stroke-miterlimit:10;}.cls-6{fill:url(#linear-gradient);}</style><linearGradient id="linear-gradient" x1="-1192.57" y1="-1214.37" x2="-1192.57" y2="-1211.57" gradientTransform="translate(32313.06 32665.03) scale(26.88)" gradientUnits="userSpaceOnUse"><stop offset="0" stop-color="#f79810"/><stop offset="1" stop-color="#f8310e"/></linearGradient></defs><title>SoundCloud</title><g id="Layer_2" data-name="Layer 2"><g id="Layer_1-2" data-name="Layer 1"><rect class="cls-1" width="377" height="110" rx="7.92"/><text class="cls-2" transform="translate(17.95 52.39)">LI<tspan class="cls-3" x="22.78" y="0">S</tspan><tspan class="cls-4" x="38.25" y="0">TEN</tspan><tspan class="cls-4"><tspan x="24.82" y="26">ON</tspan></tspan></text><line class="cls-5" x1="123" y1="16" x2="123" y2="96"/><path class="cls-6" d="M187.5,52.31a.54.54,0,0,0-.53.52l-1,7.34,1,7.21a.54.54,0,0,0,.53.52.55.55,0,0,0,.52-.52h0l1.15-7.21L188,52.83a.56.56,0,0,0-.52-.52Zm5.44-4a.55.55,0,0,0-1.1,0l-1.3,11.86,1.3,11.6a.55.55,0,0,0,1.1,0l1.48-11.6-1.48-11.86Zm20.45-11a1,1,0,0,0-1,1l-1,21.83,1,14.11a1,1,0,0,0,1,1,1,1,0,0,0,1-1h0l1.17-14.11-1.17-21.83A1,1,0,0,0,213.39,37.36ZM202.81,45a.78.78,0,0,0-.77.76l-1.17,14.46,1.17,14a.79.79,0,0,0,.77.76.8.8,0,0,0,.78-.76l1.32-14-1.32-14.46A.8.8,0,0,0,202.81,45Zm21.36,30.32a1.23,1.23,0,0,0,1.22-1.21l1-13.87-1-29.07a1.23,1.23,0,0,0-2.45,0L222,60.19l.9,13.87A1.23,1.23,0,0,0,224.17,75.27Zm22.05.07a1.7,1.7,0,0,0,1.68-1.67h0l.71-13.47-.71-33.57a1.68,1.68,0,0,0-3.35,0l-.63,33.55s.63,13.5.63,13.5A1.68,1.68,0,0,0,246.22,75.34Zm-11.13-.06a1.46,1.46,0,0,0,1.45-1.44h0l.86-13.66-.86-29.27a1.46,1.46,0,0,0-2.91,0l-.76,29.27.77,13.66a1.44,1.44,0,0,0,1.45,1.43Zm-27-.12a.9.9,0,0,0,.88-.88l1.25-14.11L209,46.75a.89.89,0,0,0-1.77,0l-1.1,13.41,1.1,14.11A.9.9,0,0,0,208.09,75.16Zm-10.51-.78a.68.68,0,0,0,.66-.64l1.4-13.57-1.4-14.08a.68.68,0,0,0-.66-.64.67.67,0,0,0-.66.64l-1.24,14.08,1.24,13.56a.67.67,0,0,0,.66.65Zm43-43.95A1.57,1.57,0,0,0,239.06,32l-.69,28.2.69,13.57a1.57,1.57,0,0,0,3.13,0v0L243,60.19,242.19,32a1.56,1.56,0,0,0-1.56-1.56ZM218.77,75.3a1.13,1.13,0,0,0,1.11-1.1l1.09-14-1.09-26.82a1.12,1.12,0,0,0-2.23,0l-1,26.82,1,14A1.13,1.13,0,0,0,218.77,75.3ZM230.94,74v0l.95-13.78-.94-30a1.34,1.34,0,0,0-2.67,0l-.84,30L228.28,74a1.35,1.35,0,0,0,1.33,1.32A1.41,1.41,0,0,0,231,74v0Zm70.95-31.13a16.27,16.27,0,0,0-6.29,1.26A28.67,28.67,0,0,0,267.05,18a29.09,29.09,0,0,0-10.4,1.94c-1.22.48-1.55,1-1.56,1.91V73.43a2,2,0,0,0,1.75,1.92l45.05,0a16.25,16.25,0,0,0,0-32.5ZM251.77,21.81A1.8,1.8,0,0,0,250,23.59l-.74,36.61L250,73.49a1.79,1.79,0,0,0,3.58,0v0l.79-13.29-.79-36.61a1.81,1.81,0,0,0-1.79-1.78Zm-52.64,63.9c-1.92-.46-2.44-.7-2.44-1.46,0-.54.43-1.09,1.73-1.09a3.7,3.7,0,0,1,2.76,1.25l1.75-1.7a5.8,5.8,0,0,0-4.42-1.91c-2.39,0-4.33,1.35-4.33,3.56,0,2.39,1.56,3.1,3.79,3.61s2.7.87,2.7,1.65-.67,1.32-2.11,1.32a3.93,3.93,0,0,1-3.1-1.39l-1.75,1.56a5.63,5.63,0,0,0,4.71,2.2c3.31,0,4.77-1.56,4.77-3.86,0-2.64-2.13-3.29-4.06-3.74Zm11.16-4.91c-3.31,0-5.26,2.57-5.26,6.26s1.95,6.25,5.26,6.25,5.27-2.56,5.27-6.25S213.6,80.8,210.29,80.8Zm0,10.1c-1.95,0-2.77-1.68-2.77-3.84s.82-3.85,2.77-3.85,2.77,1.68,2.77,3.85S212.25,90.9,210.29,90.9Zm15-3.11c0,1.94-1,3.13-2.49,3.13s-2.47-1.23-2.47-3.17V81h-2.43v6.81c0,3.53,2,5.51,4.9,5.51,3.09,0,4.93-2,4.93-5.54V81h-2.44Zm12.95-1.68s0,2.2,0,2.65c-.16-.31-.56-.92-.85-1.37L233.17,81h-2.34v12.1h2.38V87.76c0-.68,0-2.2,0-2.65.16.31.56.92.85,1.37l4.43,6.6h2.16V81h-2.38v5.13h.05ZM247.51,81h-3.78v12.1h3.61c3.11,0,6.19-1.8,6.19-6C253.53,82.6,251,81,247.51,81Zm-.16,9.78h-1.19v-7.4h1.28c2.55,0,3.61,1.22,3.61,3.7A3.35,3.35,0,0,1,247.35,90.76Zm13.71-7.55a2.31,2.31,0,0,1,2.22,1.32l2.25-1a4.57,4.57,0,0,0-4.43-2.69c-3.17,0-5.39,2.57-5.39,6.26s2.13,6.25,5.3,6.25a4.63,4.63,0,0,0,4.49-2.74l-2.05-1.21a2.54,2.54,0,0,1-2.37,1.54c-1.82,0-2.88-1.66-2.88-3.84s1.05-3.85,2.86-3.85ZM270,81h-2.43v12.1h7.3V90.7H270V81Zm11.27-.18c-3.31,0-5.27,2.57-5.27,6.26s2,6.25,5.27,6.25,5.27-2.56,5.27-6.25-2-6.26-5.27-6.26Zm0,10.1c-2,0-2.77-1.68-2.77-3.84s.81-3.85,2.77-3.85,2.77,1.68,2.77,3.85S283.27,90.9,281.31,90.9Zm15.05-3.11c0,1.94-.95,3.13-2.49,3.13s-2.48-1.23-2.48-3.17V81H289v6.81c0,3.53,2,5.51,4.91,5.51,3.09,0,4.92-2,4.92-5.54V81h-2.43v6.81ZM305.59,81h-3.78v12.1h3.61c3.11,0,6.19-1.8,6.19-6,0-4.43-2.56-6-6-6Zm-.16,9.78h-1.19v-7.4h1.28c2.55,0,3.61,1.22,3.61,3.7A3.35,3.35,0,0,1,305.43,90.76Z"/></g></g></svg>